<svg width="16" height="16" viewBox="0 0 16 16" fill="none" xmlns="http://www.w3.org/2000/svg">
<path fill-rule="evenodd" clip-rule="evenodd" d="M6.45358 1.37661C3.64964 1.37661 1.37661 3.64965 1.37661 6.45358C1.37661 9.25752 3.64964 11.5306 6.45358 11.5306C9.25751 11.5306 11.5305 9.25752 11.5305 6.45358C11.5305 3.64965 9.25751 1.37661 6.45358 1.37661ZM0 6.45358C0 2.88937 2.88936 0 6.45358 0C10.0178 0 12.9072 2.88937 12.9072 6.45358C12.9072 7.98773 12.3718 9.39684 11.4778 10.5043L16 15.0266C15.7312 15.2954 15.0266 16 15.0266 16L10.5044 11.4777C9.39691 12.3718 7.98776 12.9072 6.45358 12.9072C2.88936 12.9072 0 10.0178 0 6.45358Z" fill="black"/>
</svg>
