<svg width="16" height="14" viewBox="0 0 16 14" fill="none" xmlns="http://www.w3.org/2000/svg">
<path fill-rule="evenodd" clip-rule="evenodd" d="M5.98961 0L16 6.72642L5.98961 13.4534V9.80214C5.26008 9.92225 4.54944 10.1448 3.87942 10.4646C2.86131 10.9505 1.96118 11.6495 1.24049 12.5132L0 14V11.6065C0.00101542 9.66317 0.721143 7.78866 2.02178 6.34112C3.08133 5.16191 4.46558 4.33311 5.98961 3.94883V0ZM7.39343 2.63655V5.10921L6.81169 5.21047C5.36738 5.46186 4.04636 6.18988 3.06521 7.28184C2.29888 8.13472 1.77823 9.1669 1.54429 10.2703C2.07824 9.85051 2.65864 9.48958 3.27556 9.19513C4.33347 8.69021 5.47688 8.39119 6.64433 8.31239L7.39343 8.26184V10.8168L13.4801 6.72647L7.39343 2.63655Z" fill="black"/>
</svg>
