<svg width="12" height="11" viewBox="0 0 12 11" fill="none" xmlns="http://www.w3.org/2000/svg">
<path d="M5.54336 0.504121C5.69008 0.218337 5.76343 0.0754451 5.86302 0.029791C5.94967 -0.00993033 6.05033 -0.00993033 6.13698 0.029791C6.23657 0.0754451 6.30992 0.218337 6.45664 0.504121L7.84857 3.21543C7.89189 3.29979 7.91354 3.34198 7.94519 3.37473C7.97322 3.40373 8.00682 3.42723 8.04416 3.44392C8.08632 3.46277 8.13473 3.46958 8.23156 3.48319L11.3451 3.92075C11.673 3.96683 11.8369 3.98987 11.9128 4.06686C11.9788 4.13385 12.0098 4.22591 11.9973 4.31739C11.9828 4.42254 11.8641 4.53369 11.6268 4.75598L9.37463 6.86508C9.30443 6.93083 9.26932 6.9637 9.24667 7.00282C9.22662 7.03745 9.21375 7.0755 9.20879 7.11485C9.20318 7.15929 9.21147 7.20573 9.22803 7.2986L9.75943 10.2776C9.81548 10.5918 9.8435 10.7489 9.79084 10.8422C9.74502 10.9233 9.66356 10.9802 9.56917 10.997C9.46068 11.0163 9.31395 10.9421 9.02049 10.7937L6.23703 9.38632C6.1503 9.34247 6.10694 9.32054 6.06125 9.31192C6.0208 9.3043 5.9792 9.3043 5.93875 9.31192C5.89306 9.32054 5.8497 9.34247 5.76297 9.38632L2.97951 10.7937C2.68605 10.9421 2.53932 11.0163 2.43083 10.997C2.33644 10.9802 2.25498 10.9233 2.20916 10.8422C2.1565 10.7489 2.18452 10.5918 2.24057 10.2776L2.77197 7.2986C2.78853 7.20573 2.79682 7.15929 2.79121 7.11485C2.78625 7.0755 2.77338 7.03745 2.75333 7.00282C2.73068 6.9637 2.69558 6.93083 2.62537 6.86508L0.373236 4.75598C0.135868 4.53369 0.0171843 4.42254 0.00274196 4.31739C-0.00982365 4.22591 0.0212193 4.13385 0.0872278 4.06686C0.163095 3.98987 0.32703 3.96683 0.654899 3.92075L3.76844 3.48319C3.86527 3.46958 3.91368 3.46277 3.95584 3.44392C3.99318 3.42723 4.02678 3.40373 4.05481 3.37473C4.08646 3.34198 4.10812 3.29979 4.15143 3.21543L5.54336 0.504121Z" fill="white"/>
</svg>
