<svg width="138" height="68" viewBox="0 0 138 68" fill="none" xmlns="http://www.w3.org/2000/svg">
<path d="M14.5697 56.8712C14.5697 52.8467 14.766 48.7604 14.229 44.7681C13.469 39.1171 11.582 33.7518 10.8795 28.0871C10.7298 26.8802 9.81964 24.5093 11.504 25.3906C12.9849 26.1654 14.6462 26.2193 16.1876 26.7702C23.0483 29.222 29.8505 34.9381 35.7171 39.375C40.0564 42.6569 45.1781 45.8436 48.9165 49.9731C49.5246 50.6449 49.5421 51.5293 49.9384 52.3561C51.4777 55.5678 49.7446 45.0785 49.3139 41.4758C48.3641 33.5324 48.292 25.6406 48.292 17.6458C48.292 16.2252 48.0868 14.5183 48.3204 13.0993C48.8627 9.80446 50.8925 9.95359 53.4014 10.0265C63.8084 10.329 74.1881 19.33 82.6388 24.8889C88.2579 28.5852 93.6105 31.0707 96.7181 37.6818C98.1456 40.7186 98.9013 44.2831 98.251 47.7155C98.1438 48.2811 96.1338 51.1646 95.5827 51.1646C93.7051 51.1646 98.6199 48.725 100.153 47.5274C104.308 44.2809 107.499 39.2414 109.605 34.17C111.427 29.7848 114.138 22.961 113.125 17.928C112.928 16.9506 110.866 14.8057 111.507 15.5137C114.34 18.643 116.758 22.2314 119.228 25.7041C122.957 30.9471 125.878 35.3172 126.864 42.0715C127.638 47.3745 127.488 52.5955 127.488 58" stroke="#FFDE00" stroke-width="20" stroke-linecap="round"/>
<path d="M40.54 36.008C40.54 43.344 40.372 48.944 37.572 52.136C35.78 54.208 33.316 56 28.836 56H17.58V16.128H28.836C33.316 16.128 35.78 17.92 37.572 19.992C40.372 23.184 40.54 28.672 40.54 36.008ZM32.588 36.008C32.588 31.584 32.588 26.88 31.636 25.032C31.132 24.024 30.124 23.296 28.668 23.296H25.532V48.832H28.668C30.124 48.832 31.132 48.104 31.636 47.096C32.588 45.248 32.588 40.432 32.588 36.008ZM69.1639 56H60.8759L59.5879 49.784H50.4039L49.1159 56H40.8279L51.0759 16.128H58.9159L69.1639 56ZM58.0759 42.616L54.9959 27.832L51.9159 42.616H58.0759ZM78.8283 56H70.8762V16.128H78.8283V56ZM101.674 56H83.3056V16.128H91.2576V48.832H101.674V56ZM122.15 16.128L114.03 40.992V56H106.078V40.992L97.9584 16.128H106.694L110.054 30.576L113.414 16.128H122.15Z" fill="black"/>
</svg>
